<svg width="60" height="60" viewBox="0 0 60 60" fill="none" xmlns="http://www.w3.org/2000/svg">
<rect width="60" height="60" rx="30" fill="#E5E6E8"/>
<path d="M45.4533 16.9565H14.3528L14.3477 42.1977H45.4533V16.9565Z" fill="#4E4E4E"/>
<path d="M44.2771 18.1289H15.5301L15.5254 41.0161H44.2771V18.1289Z" fill="#E5E6E8"/>
<path d="M43.1098 19.8918H17.2874L17.2832 39.264H43.1098V19.8918Z" fill="#515151"/>
<path d="M41.9231 21.0687H18.4589L18.4551 38.0864H41.9231V21.0687Z" fill="#E5E6E8"/>
<path d="M27.0591 24.9828C27.0591 26.3615 25.9415 27.4792 24.5628 27.4792C23.1841 27.4792 22.0664 26.3615 22.0664 24.9828C22.0664 23.6041 23.1841 22.4865 24.5628 22.4865C25.9415 22.4865 27.0591 23.6041 27.0591 24.9828ZM23.3146 24.9828C23.3146 25.6722 23.8734 26.231 24.5628 26.231C25.2521 26.231 25.8109 25.6722 25.8109 24.9828C25.8109 24.2935 25.2521 23.7346 24.5628 23.7346C23.8734 23.7346 23.3146 24.2935 23.3146 24.9828Z" fill="#4F4F4F"/>
<path d="M21.83 28.6455L18.4551 31.9662V33.664L21.83 30.2891L26.7965 34.1642L34.5487 27.3693L42.0007 36.0009L43.0007 35.0009L34.5487 25.5448L26.7965 32.5611L21.83 28.6455Z" fill="#4E504F"/>
</svg>
