<svg width="10" height="17" viewBox="0 0 10 17" fill="none" xmlns="http://www.w3.org/2000/svg">
<path d="M0.791712 16.7062C0.698585 16.6133 0.624699 16.503 0.574286 16.3815C0.523874 16.26 0.497925 16.1297 0.497925 15.9982C0.497925 15.8667 0.523874 15.7364 0.574286 15.6149C0.624699 15.4935 0.698585 15.3831 0.791712 15.2902L7.08571 8.99821L0.791711 2.70621C0.603938 2.51844 0.498448 2.26376 0.498448 1.99821C0.498448 1.73266 0.603938 1.47799 0.791711 1.29021C0.979484 1.10244 1.23416 0.99695 1.49971 0.99695C1.76526 0.99695 2.01994 1.10244 2.20771 1.29021L9.20771 8.29021C9.30084 8.3831 9.37472 8.49345 9.42514 8.61494C9.47555 8.73643 9.5015 8.86668 9.5015 8.99821C9.5015 9.12975 9.47555 9.25999 9.42514 9.38148C9.37473 9.50297 9.30084 9.61332 9.20771 9.70621L2.20771 16.7062C2.11482 16.7993 2.00447 16.8732 1.88298 16.9236C1.76149 16.9741 1.63125 17 1.49971 17C1.36818 17 1.23794 16.9741 1.11644 16.9236C0.994954 16.8732 0.884603 16.7993 0.791712 16.7062Z" fill="black"/>
</svg>
