<svg width="13" height="7" viewBox="0 0 13 7" fill="none" xmlns="http://www.w3.org/2000/svg">
<path d="M12.853 0.646029C12.9469 0.73966 12.9997 0.866739 12.9999 0.999322C13.0001 1.1319 12.9476 1.25913 12.854 1.35303L7.38901 6.83703C7.3379 6.88843 7.27713 6.92922 7.2102 6.95705C7.14327 6.98488 7.0715 6.99921 6.99901 6.99921C6.92652 6.99921 6.85475 6.98488 6.78782 6.95705C6.72089 6.92922 6.66012 6.88843 6.60901 6.83703L1.14601 1.35303C1.09833 1.30684 1.06032 1.25161 1.0342 1.19057C1.00809 1.12953 0.994391 1.06391 0.99391 0.99752C0.993429 0.931132 1.00617 0.865312 1.0314 0.803902C1.05663 0.742492 1.09383 0.686721 1.14084 0.639843C1.18785 0.592965 1.24373 0.555918 1.30521 0.530865C1.36669 0.505811 1.43255 0.493253 1.49893 0.493922C1.56532 0.494591 1.63091 0.508473 1.69187 0.534761C1.75284 0.561048 1.80795 0.599213 1.85401 0.647029L7.00001 5.81203L12.147 0.647029C12.2406 0.55316 12.3677 0.500323 12.5003 0.500135C12.6329 0.499948 12.7601 0.552426 12.854 0.646029H12.853Z" fill="#C4C4C4"/>
</svg>
