<svg width="32" height="27" viewBox="0 0 32 27" fill="none" xmlns="http://www.w3.org/2000/svg">
<path d="M31.4534 0.956055H0.352873L0.347778 26.1972H31.4534V0.956055Z" fill="#4E4E4E"/>
<path d="M30.2764 2.12793H1.52937L1.52466 25.0152H30.2764V2.12793Z" fill="#E5E6E8"/>
<path d="M29.1097 3.8916H3.28731L3.28308 23.2638H29.1097V3.8916Z" fill="#515151"/>
<path d="M27.9224 5.06836H4.45819L4.45435 22.086H27.9224V5.06836Z" fill="#E5E6E8"/>
<path d="M13.0585 8.98269C13.0585 10.3614 11.9409 11.479 10.5622 11.479C9.18345 11.479 8.0658 10.3614 8.0658 8.98269C8.0658 7.60399 9.18345 6.48633 10.5622 6.48633C11.9409 6.48633 13.0585 7.60399 13.0585 8.98269ZM9.31398 8.98269C9.31398 9.67204 9.8728 10.2309 10.5622 10.2309C11.2515 10.2309 11.8103 9.67204 11.8103 8.98269C11.8103 8.29334 11.2515 7.73451 10.5622 7.73451C9.8728 7.73451 9.31398 8.29334 9.31398 8.98269Z" fill="#4F4F4F"/>
<path d="M7.82922 12.6446L4.45435 15.9654V17.6631L7.82922 14.2883L12.7958 18.1633L20.5479 11.3685L28 20L29 19L20.5479 9.54395L12.7958 16.5603L7.82922 12.6446Z" fill="#4E504F"/>
</svg>
