<svg width="24" height="24" viewBox="0 0 24 24" fill="none" xmlns="http://www.w3.org/2000/svg">
<rect width="24" height="24" rx="12" fill="#069255"/>
<path d="M9.1118 13.9465C9.2375 13.8251 9.40586 13.7579 9.58061 13.7594C9.75536 13.7609 9.92252 13.831 10.0461 13.9546C10.1697 14.0781 10.2398 14.2453 10.2413 14.4201C10.2428 14.5948 10.1756 14.7632 10.0542 14.8889L8.27603 16.6664H9.33241C9.49575 16.6664 9.6534 16.7264 9.7754 16.8351C9.89741 16.9437 9.97528 17.0933 9.99422 17.2555L9.99889 17.3329C9.99889 17.5096 9.92867 17.6791 9.80368 17.8041C9.67869 17.9291 9.50917 17.9993 9.33241 17.9993H6.66648C6.48972 17.9993 6.3202 17.9291 6.19521 17.8041C6.07022 17.6791 6 17.5096 6 17.3329V14.6669C6 14.4902 6.07022 14.3206 6.19521 14.1957C6.3202 14.0707 6.48972 14.0004 6.66648 14.0004C6.84324 14.0004 7.01277 14.0707 7.13776 14.1957C7.26274 14.3206 7.33296 14.4902 7.33296 14.6669V15.7246L9.1118 13.9465ZM14.6676 17.9993C14.4908 17.9993 14.3213 17.9291 14.1963 17.8041C14.0713 17.6791 14.0011 17.5096 14.0011 17.3329C14.0011 17.1561 14.0713 16.9866 14.1963 16.8616C14.3213 16.7366 14.4908 16.6664 14.6676 16.6664H15.7226L13.9465 14.8889C13.8317 14.7741 13.7628 14.6214 13.7526 14.4594C13.7424 14.2975 13.7917 14.1373 13.8911 14.0091L13.9465 13.9465C14.0714 13.8215 14.2409 13.7513 14.4177 13.7513C14.5944 13.7513 14.7639 13.8215 14.8889 13.9465L16.667 15.726V14.6669C16.6671 14.5037 16.727 14.3461 16.8355 14.2241C16.9439 14.1021 17.0934 14.0242 17.2555 14.0051L17.3335 14.0004C17.5103 14.0004 17.6798 14.0707 17.8048 14.1957C17.9298 14.3206 18 14.4902 18 14.6669V17.3329C18 17.5096 17.9298 17.6791 17.8048 17.8041C17.6798 17.9291 17.5103 17.9993 17.3335 17.9993H14.6676ZM9.33241 6C9.50917 6 9.67869 6.07022 9.80368 6.19521C9.92867 6.3202 9.99889 6.48972 9.99889 6.66648C9.99889 6.84324 9.92867 7.01277 9.80368 7.13776C9.67869 7.26274 9.50917 7.33296 9.33241 7.33296H8.27737L10.0535 9.11114C10.1683 9.2259 10.2372 9.37859 10.2474 9.54056C10.2576 9.70253 10.2083 9.86266 10.1089 9.99089L10.0535 10.0535C9.92856 10.1785 9.75907 10.2487 9.58234 10.2487C9.40561 10.2487 9.23612 10.1785 9.11114 10.0535L7.33296 8.27404V9.33241C7.33294 9.49565 7.27301 9.65321 7.16453 9.7752C7.05606 9.89719 6.90658 9.97512 6.74446 9.99422L6.66648 9.99889C6.48972 9.99889 6.3202 9.92867 6.19521 9.80368C6.07022 9.67869 6 9.50917 6 9.33241V6.66648C6 6.48972 6.07022 6.3202 6.19521 6.19521C6.3202 6.07022 6.48972 6 6.66648 6H9.33241ZM17.3335 6C17.5103 6 17.6798 6.07022 17.8048 6.19521C17.9298 6.3202 18 6.48972 18 6.66648V9.33241C18 9.50917 17.9298 9.67869 17.8048 9.80368C17.6798 9.92867 17.5103 9.99889 17.3335 9.99889C17.1568 9.99889 16.9872 9.92867 16.8622 9.80368C16.7373 9.67869 16.667 9.50917 16.667 9.33241V8.27404L14.8889 10.0535C14.7741 10.1683 14.6214 10.2372 14.4594 10.2474C14.2975 10.2576 14.1373 10.2083 14.0091 10.1089L13.9465 10.0535C13.8215 9.92856 13.7513 9.75907 13.7513 9.58234C13.7513 9.40561 13.8215 9.23612 13.9465 9.11114L15.7233 7.33296H14.6676C14.5043 7.33294 14.3468 7.27301 14.2248 7.16453C14.1028 7.05606 14.0249 6.90658 14.0058 6.74446L14.0011 6.66648C14.0011 6.48972 14.0713 6.3202 14.1963 6.19521C14.3213 6.07022 14.4908 6 14.6676 6H17.3335Z" fill="white"/>
</svg>
