<svg width="25" height="32" viewBox="0 0 25 32" fill="none" xmlns="http://www.w3.org/2000/svg">
<path fill-rule="evenodd" clip-rule="evenodd" d="M17.8597 2.53346C17.322 2.38089 16.5953 2.48965 15.9772 2.65528C15.8413 2.69172 15.6999 2.74865 15.5167 2.82764L15.4506 2.85626C15.2922 2.92502 15.0979 3.0093 14.8976 3.07586C13.7888 3.44422 12.219 3.38062 10.5286 2.81712C9.68979 2.53753 8.86382 2.54608 8.20122 2.73849C7.52563 2.93468 7.0903 3.29665 6.91031 3.65678L6.91121 3.655L6.91098 3.65582C6.90891 3.66259 6.89383 3.71184 6.90159 3.83008C6.9106 3.96739 6.94751 4.15133 7.02119 4.38047C7.16862 4.83897 7.43352 5.38804 7.76182 5.94764C8.08758 6.50292 8.46063 7.04293 8.80709 7.48029C9.16885 7.93697 9.45473 8.22166 9.60184 8.32316C9.62128 8.33657 9.69818 8.37765 9.86883 8.42218C10.0304 8.46434 10.2368 8.49967 10.4825 8.52582C10.9738 8.5781 11.5674 8.5881 12.1647 8.567C12.76 8.54597 13.3394 8.49476 13.7974 8.43054C14.027 8.39834 14.2169 8.36414 14.3585 8.33126C14.4546 8.30895 14.5053 8.29233 14.5244 8.28606C14.5305 8.28406 14.5333 8.28312 14.5335 8.28338L14.5331 8.28376C15.3238 7.82534 16.3748 7.05145 17.8461 4.24016C18.0636 3.82468 18.1769 3.34887 18.1496 2.9945C18.1364 2.8237 18.0939 2.71858 18.0533 2.65955C18.0206 2.61202 17.9708 2.565 17.8597 2.53346ZM15.5878 1.20226C16.2454 1.02604 17.3146 0.815097 18.2703 1.0863C18.7087 1.21069 19.0558 1.46249 19.2928 1.80712C19.5219 2.14025 19.6219 2.52063 19.6495 2.8791C19.7036 3.58326 19.4912 4.34105 19.1789 4.9377C18.0828 7.03206 17.1531 8.15711 16.3248 8.85921C18.1041 10.7179 19.99 12.9773 21.5453 15.3272C23.1745 17.7889 24.4822 20.4116 24.8777 22.8105C25.2796 25.249 24.741 27.5487 22.5658 29.0981C20.5669 30.522 17.3084 31.2136 12.5002 31.0081C7.69204 31.2136 4.43348 30.522 2.43459 29.0981C0.259412 27.5487 -0.279207 25.249 0.122731 22.8105C0.518162 20.4116 1.82594 17.7889 3.45513 15.3272C4.91227 13.1255 6.65972 11.0033 8.33774 9.21568C8.10441 8.98883 7.86099 8.70858 7.62793 8.41437C7.23788 7.92198 6.82532 7.32417 6.46432 6.70883C6.10586 6.0978 5.78283 5.44343 5.58911 4.84095C5.4922 4.5396 5.42022 4.22866 5.40052 3.92861C5.38116 3.63368 5.40884 3.29616 5.56471 2.98427C5.9853 2.14274 6.83347 1.56924 7.78171 1.29388C8.74294 1.01474 9.88113 1.01565 11.0043 1.39002C12.5025 1.88943 13.7217 1.88138 14.4233 1.64828C14.5559 1.60424 14.6844 1.54866 14.8486 1.47762L14.9212 1.44623C15.107 1.36615 15.3364 1.26965 15.5878 1.20226ZM12.5002 29.5024C12.3089 29.4939 12.1146 29.4839 11.9172 29.4724L11.9142 29.524C7.52927 29.6524 4.83653 28.9622 3.30736 27.8729C1.73145 26.7503 1.2689 25.1063 1.607 23.0552C1.9516 20.9646 3.12506 18.5516 4.70958 16.1575C6.19687 13.9102 8.0099 11.7336 9.73012 9.93308C9.91954 9.97119 10.1196 9.99999 10.3233 10.0217C10.9085 10.0839 11.5779 10.093 12.2178 10.0704C12.8597 10.0477 13.4915 9.99245 14.0063 9.92026C14.263 9.88426 14.4998 9.84277 14.6988 9.79656C14.8028 9.77241 14.9248 9.74092 15.0439 9.69771C16.8304 11.5422 18.7381 13.8114 20.2908 16.1575C21.8754 18.5516 23.0488 20.9646 23.3934 23.0552C23.7315 25.1063 23.269 26.7503 21.6931 27.8729C20.1639 28.9622 17.4711 29.6524 13.0862 29.524L13.0832 29.4724C12.8858 29.4839 12.6915 29.4939 12.5002 29.5024Z" fill="white"/>
<rect x="11.5928" y="29.0713" width="1.82743" height="0.460051" fill="#069255"/>
<rect x="11.8022" y="30.5396" width="1.82743" height="0.483284" fill="white"/>
<path fill-rule="evenodd" clip-rule="evenodd" d="M11.7823 16.2472C11.8629 16.2421 11.9267 16.176 11.9267 16.0952V14.8858C11.9267 14.8027 11.9941 14.7354 12.0771 14.7354H12.9045C12.9876 14.7354 13.0549 14.8027 13.0549 14.8858V16.0836C13.0549 16.1667 13.1223 16.234 13.2054 16.234H14.5671C14.6502 16.234 14.7175 16.3014 14.7175 16.3844V17.2118C14.7175 17.2949 14.6502 17.3622 14.5671 17.3622H12.5638L12.4444 17.3621H12.4444C12.1169 17.3615 11.832 17.361 11.5693 17.4035C11.2867 17.4493 11.1013 17.5357 10.9751 17.6705C10.9145 17.7352 10.8661 17.8084 10.8332 17.8931C10.6484 18.3682 10.7035 18.9151 11.164 19.2349C11.3964 19.3963 11.7299 19.4356 12.2165 19.4356H12.2184H12.2204H12.2223H12.2242H12.2261H12.2281H12.23H12.2319H12.2338H12.2357H12.2377H12.2396H12.2415H12.2434H12.2453H12.2473H12.2492H12.2511H12.253H12.2549H12.2568H12.2588H12.2607H12.2626H12.2645H12.2664H12.2683H12.2702H12.2722H12.2741H12.276H12.2779H12.2798H12.2817H12.2836H12.2855H12.2874H12.2893H12.2913H12.2932H12.2951H12.297H12.2989H12.3008H12.3027H12.3046H12.3065H12.3084H12.3103H12.3122H12.3141H12.316H12.3179H12.3198H12.3217H12.3236H12.3255H12.3274H12.3293H12.3312H12.3331H12.335H12.3369H12.3388H12.3407H12.3426H12.3445H12.3464H12.3483H12.3502H12.352H12.3539H12.3558H12.3577H12.3596H12.3615H12.3634H12.3653H12.3672H12.3691H12.3709H12.3728H12.3747H12.3766H12.3785H12.3804H12.3823H12.3841H12.386H12.3879H12.3898H12.3917H12.3935H12.3954H12.3973H12.3992H12.4011H12.4029H12.4048H12.4067H12.4086H12.4105H12.4123H12.4142H12.4161H12.418H12.4198H12.4217H12.4236H12.4255H12.4273H12.4292H12.4311H12.4329H12.4348H12.4367H12.4385H12.4404H12.4423H12.4441H12.446H12.4479H12.4497H12.4516H12.4535H12.4553H12.4572H12.4591H12.4609H12.4628H12.4647H12.4665H12.4684H12.4702H12.4721H12.474H12.4758H12.4777H12.4795H12.4814H12.4832H12.4851H12.487H12.4888H12.4907H12.4925H12.4944H12.4962H12.4981H12.4999H12.5018H12.5036H12.5055H12.5073H12.5092H12.511H12.5129H12.5147H12.5166H12.5184H12.5202H12.5221H12.5239H12.5258H12.5276H12.5295H12.5313H12.5331H12.535H12.5368H12.5387H12.5405H12.5423H12.5442H12.546H12.5479H12.5497H12.5515H12.5534H12.5552H12.557H12.5589H12.5607H12.5625H12.5644H12.5662H12.568H12.5699H12.5717H12.5735H12.5753H12.5772H12.579H12.5808H12.5826H12.5845H12.5863H12.5881H12.5899H12.5918H12.5936H12.5954H12.5972H12.599H12.6009H12.6027H12.6045H12.6063H12.6081H12.61H12.6118H12.6136H12.6154H12.6172H12.619H12.6208H12.6227H12.6245H12.6263H12.6281H12.6299H12.6317H12.6335H12.6353H12.6371H12.6389H12.6408H12.6426H12.6444H12.6462H12.648H12.6498H12.6516H12.6534H12.6552H12.657H12.6588H12.6606H12.6624H12.6642H12.666H12.6678H12.6696H12.6714H12.6732H12.675H12.6768H12.6786H12.6803H12.6821H12.6839H12.6857H12.6875H12.6893H12.6911H12.6929H12.6947H12.6965H12.6982H12.7H12.7018H12.7036H12.7054H12.7072H12.7089H12.7107H12.7125H12.7143H12.7161H12.7179H12.7196H12.7214H12.7232H12.725H12.7267H12.7285H12.7303H12.7321H12.7338H12.7356H12.7374H12.7392H12.7409H12.7427H12.7445H12.7462H12.748H12.7498H12.7515H12.7533H12.7551H12.7568H12.7586H12.7604H12.7621H12.7639H12.7657H12.7674H12.7692H12.7709H12.7727H12.7745H12.7762H12.778H12.7797H12.7815H12.7832H12.785H12.7868H12.7885H12.7903H12.792H12.7938H12.7955H12.7973H12.799H12.8008H12.8025H12.8043H12.806H12.8078H12.8095H12.8112H12.813H12.8147H12.8165H12.8182H12.82H12.8217H12.8234H12.8252H12.8269H12.8286H12.8304H12.8321H12.8339H12.8356H12.8373H12.8391H12.8408H12.8425H12.8443H12.846H12.8477H12.8495H12.8512H12.8529H12.8546H12.8564H12.8581H12.8598H12.8615H12.8633H12.865H12.8667H12.8684H12.8701H12.8719H12.8736H12.8753H12.877H12.8787H12.8805H12.8822H12.8839H12.8856H12.8873H12.889H12.8907H12.8925H12.8942H12.8959H12.8976H12.8993H12.901H12.9027H12.9044H12.9061H12.9078H12.9095H12.9112H12.9129H12.9146H12.9163H12.918H12.9197H12.9214H12.9231H12.9248H12.9265H12.9282H12.9299H12.9316H12.9333H12.935H12.9367H12.9384H12.9401H12.9418H12.9435H12.9452H12.9469H12.9485H12.9502H12.9519H12.9536H12.9553H12.957H12.9587H12.9603H12.962H12.9637H12.9654H12.9671H12.9687H12.9704H12.9721H12.9738H12.9754H12.9771H12.9788H12.9805H12.9821H12.9838H12.9855H12.9872H12.9888H12.9905H12.9922H12.9938H12.9955H12.9972H12.9988H13.0005H13.0022H13.0038H13.0055H13.0071H13.0088H13.0105H13.0121H13.0138H13.0154H13.0171H13.0187H13.0204H13.0221H13.0237H13.0254H13.027H13.0287H13.0303H13.032H13.0336H13.0353H13.0369H13.0386H13.0402H13.0418H13.0435H13.0451H13.0468H13.0484H13.0501H13.0517H13.0533H13.055H13.0566H13.0583H13.0599H13.0615H13.0632H13.0648H13.0664H13.0681H13.0697H13.0713H13.073H13.0746H13.0762H13.0778H13.0795H13.0811H13.0827H13.0843H13.086H13.0876H13.0892H13.0908H13.0924H13.0941H13.0957H13.0973H13.0989H13.1005H13.1022H13.1038H13.1054H13.107H13.1086H13.1102H13.1118H13.1134H13.115H13.1167H13.1183H13.1199H13.1215H13.1231H13.1247H13.1263H13.1279C13.4595 19.4356 13.8194 19.4634 14.1544 19.5989C14.5099 19.7428 14.8022 19.9933 15.0138 20.3711C15.0987 20.5227 15.1926 20.7225 15.2649 20.9308C15.3331 21.127 15.4024 21.3873 15.3902 21.6393C15.3613 22.2397 15.1231 22.6701 14.8193 22.9615C14.3008 23.4588 13.5771 23.5101 13.1015 23.5227C13.0756 23.5234 13.0549 23.5446 13.0549 23.5705V24.7695C13.0549 24.8526 12.9876 24.9199 12.9045 24.9199H12.0771C11.9941 24.9199 11.9267 24.8526 11.9267 24.7695V23.6632C11.9267 23.5816 11.8617 23.5149 11.7802 23.5126C11.6997 23.5103 11.6198 23.5079 11.5409 23.5054C11.4315 23.502 11.3243 23.4984 11.2198 23.495L11.2196 23.495C10.8881 23.484 10.5845 23.474 10.3305 23.4709C10.2474 23.4699 10.1801 23.4026 10.1801 23.3195V22.4922C10.1801 22.4091 10.2474 22.3417 10.3305 22.3427C10.6046 22.3458 10.9303 22.3566 11.2683 22.3677L11.2683 22.3677L11.2704 22.3678C11.3716 22.3711 11.474 22.3745 11.5764 22.3777C12.0955 22.3941 12.6245 22.4068 13.0716 22.3949C13.5565 22.3821 13.8633 22.3151 14.0383 22.1473C14.14 22.0497 14.2487 21.8887 14.2633 21.585C14.265 21.55 14.2519 21.4529 14.1991 21.3009C14.1505 21.1609 14.085 21.0216 14.0294 20.9224C13.9403 20.7633 13.8434 20.6902 13.7312 20.6448C13.5983 20.591 13.4117 20.5638 13.1279 20.5638H13.1263H13.1247H13.1231H13.1215H13.1199H13.1183H13.1167H13.115H13.1134H13.1118H13.1102H13.1086H13.107H13.1054H13.1038H13.1022H13.1005H13.0989H13.0973H13.0957H13.0941H13.0924H13.0908H13.0892H13.0876H13.086H13.0843H13.0827H13.0811H13.0795H13.0778H13.0762H13.0746H13.073H13.0713H13.0697H13.0681H13.0664H13.0648H13.0632H13.0615H13.0599H13.0583H13.0566H13.055H13.0533H13.0517H13.0501H13.0484H13.0468H13.0451H13.0435H13.0418H13.0402H13.0386H13.0369H13.0353H13.0336H13.032H13.0303H13.0287H13.027H13.0254H13.0237H13.0221H13.0204H13.0187H13.0171H13.0154H13.0138H13.0121H13.0105H13.0088H13.0071H13.0055H13.0038H13.0022H13.0005H12.9988H12.9972H12.9955H12.9938H12.9922H12.9905H12.9888H12.9872H12.9855H12.9838H12.9821H12.9805H12.9788H12.9771H12.9754H12.9738H12.9721H12.9704H12.9687H12.9671H12.9654H12.9637H12.962H12.9603H12.9587H12.957H12.9553H12.9536H12.9519H12.9502H12.9485H12.9469H12.9452H12.9435H12.9418H12.9401H12.9384H12.9367H12.935H12.9333H12.9316H12.9299H12.9282H12.9265H12.9248H12.9231H12.9214H12.9197H12.918H12.9163H12.9146H12.9129H12.9112H12.9095H12.9078H12.9061H12.9044H12.9027H12.901H12.8993H12.8976H12.8959H12.8942H12.8925H12.8907H12.889H12.8873H12.8856H12.8839H12.8822H12.8805H12.8787H12.877H12.8753H12.8736H12.8719H12.8701H12.8684H12.8667H12.865H12.8633H12.8615H12.8598H12.8581H12.8564H12.8546H12.8529H12.8512H12.8495H12.8477H12.846H12.8443H12.8425H12.8408H12.8391H12.8373H12.8356H12.8339H12.8321H12.8304H12.8286H12.8269H12.8252H12.8234H12.8217H12.82H12.8182H12.8165H12.8147H12.813H12.8112H12.8095H12.8078H12.806H12.8043H12.8025H12.8008H12.799H12.7973H12.7955H12.7938H12.792H12.7903H12.7885H12.7868H12.785H12.7832H12.7815H12.7797H12.778H12.7762H12.7745H12.7727H12.7709H12.7692H12.7674H12.7657H12.7639H12.7621H12.7604H12.7586H12.7568H12.7551H12.7533H12.7515H12.7498H12.748H12.7462H12.7445H12.7427H12.7409H12.7392H12.7374H12.7356H12.7338H12.7321H12.7303H12.7285H12.7267H12.725H12.7232H12.7214H12.7196H12.7179H12.7161H12.7143H12.7125H12.7107H12.7089H12.7072H12.7054H12.7036H12.7018H12.7H12.6982H12.6965H12.6947H12.6929H12.6911H12.6893H12.6875H12.6857H12.6839H12.6821H12.6803H12.6786H12.6768H12.675H12.6732H12.6714H12.6696H12.6678H12.666H12.6642H12.6624H12.6606H12.6588H12.657H12.6552H12.6534H12.6516H12.6498H12.648H12.6462H12.6444H12.6426H12.6408H12.6389H12.6371H12.6353H12.6335H12.6317H12.6299H12.6281H12.6263H12.6245H12.6227H12.6208H12.619H12.6172H12.6154H12.6136H12.6118H12.61H12.6081H12.6063H12.6045H12.6027H12.6009H12.599H12.5972H12.5954H12.5936H12.5918H12.5899H12.5881H12.5863H12.5845H12.5826H12.5808H12.579H12.5772H12.5753H12.5735H12.5717H12.5699H12.568H12.5662H12.5644H12.5625H12.5607H12.5589H12.557H12.5552H12.5534H12.5515H12.5497H12.5479H12.546H12.5442H12.5423H12.5405H12.5387H12.5368H12.535H12.5331H12.5313H12.5295H12.5276H12.5258H12.5239H12.5221H12.5202H12.5184H12.5166H12.5147H12.5129H12.511H12.5092H12.5073H12.5055H12.5036H12.5018H12.4999H12.4981H12.4962H12.4944H12.4925H12.4907H12.4888H12.487H12.4851H12.4832H12.4814H12.4795H12.4777H12.4758H12.474H12.4721H12.4702H12.4684H12.4665H12.4647H12.4628H12.4609H12.4591H12.4572H12.4553H12.4535H12.4516H12.4497H12.4479H12.446H12.4441H12.4423H12.4404H12.4385H12.4367H12.4348H12.4329H12.4311H12.4292H12.4273H12.4255H12.4236H12.4217H12.4198H12.418H12.4161H12.4142H12.4123H12.4105H12.4086H12.4067H12.4048H12.4029H12.4011H12.3992H12.3973H12.3954H12.3935H12.3917H12.3898H12.3879H12.386H12.3841H12.3823H12.3804H12.3785H12.3766H12.3747H12.3728H12.3709H12.3691H12.3672H12.3653H12.3634H12.3615H12.3596H12.3577H12.3558H12.3539H12.352H12.3502H12.3483H12.3464H12.3445H12.3426H12.3407H12.3388H12.3369H12.335H12.3331H12.3312H12.3293H12.3274H12.3255H12.3236H12.3217H12.3198H12.3179H12.316H12.3141H12.3122H12.3103H12.3084H12.3065H12.3046H12.3027H12.3008H12.2989H12.297H12.2951H12.2932H12.2913H12.2893H12.2874H12.2855H12.2836H12.2817H12.2798H12.2779H12.276H12.2741H12.2722H12.2702H12.2683H12.2664H12.2645H12.2626H12.2607H12.2588H12.2568H12.2549H12.253H12.2511H12.2492H12.2473H12.2453H12.2434H12.2415H12.2396H12.2377H12.2357H12.2338H12.2319H12.23H12.2281H12.2261H12.2242H12.2223H12.2204H12.2184H12.2165C11.7457 20.5638 11.0744 20.5463 10.5205 20.1616C9.47821 19.4378 9.4853 18.2463 9.78166 17.4842C9.87221 17.2513 10.0034 17.0576 10.1515 16.8994C10.5119 16.5146 10.9708 16.3576 11.3889 16.2898C11.5185 16.2688 11.6511 16.2555 11.7823 16.2472Z" fill="white"/>
</svg>
