<svg width="13" height="17" viewBox="0 0 13 17" fill="none" xmlns="http://www.w3.org/2000/svg">
<path d="M12.7313 2.18334C12.5871 2.09944 12.4089 2.09944 12.2647 2.18334C11.706 2.49328 11.0769 2.654 10.438 2.65C9.50391 2.67066 8.60073 2.31516 7.93135 1.66334C7.15861 0.906938 6.11379 0.493625 5.0327 0.516688C4.16204 0.509156 3.3108 0.773938 2.59805 1.27403V1.05C2.59805 0.608188 2.23989 0.25 1.79805 0.25C1.3562 0.25 0.998047 0.608156 0.998047 1.05V15.45C0.998047 15.8918 1.3562 16.25 1.79805 16.25C2.23986 16.25 2.59805 15.8918 2.59805 15.45V8.51666C2.68642 8.50837 2.77061 8.47509 2.8407 8.42066C3.47514 7.95344 4.24486 7.70625 5.0327 7.71666C5.96851 7.69516 6.87367 8.05069 7.5447 8.70331C8.31598 9.45863 9.35873 9.87187 10.438 9.84997C11.2652 9.85959 12.0765 9.62291 12.7687 9.16997C12.9168 9.06731 13.0031 8.89678 12.998 8.71663V2.65C12.9997 2.45775 12.8978 2.27947 12.7313 2.18334Z" fill="#00904A"/>
</svg>
