<svg width="9" height="12" viewBox="0 0 9 12" fill="none" xmlns="http://www.w3.org/2000/svg">
<path d="M8.79996 1.45001C8.69178 1.38708 8.55813 1.38708 8.44997 1.45001C8.03098 1.68246 7.55913 1.803 7.07998 1.8C6.37941 1.81549 5.70202 1.54887 5.19999 1.06001C4.62042 0.492703 3.83681 0.182719 3.02599 0.200016C2.373 0.194367 1.73456 0.392953 1.2 0.768023V0.6C1.2 0.268641 0.931383 0 0.6 0C0.268617 0 0 0.268617 0 0.6V11.4C0 11.7314 0.268617 12 0.6 12C0.931359 12 1.2 11.7314 1.2 11.4V6.19999C1.26628 6.19378 1.32942 6.16882 1.38199 6.12799C1.85782 5.77758 2.43511 5.59219 3.02599 5.59999C3.72785 5.58387 4.40672 5.85052 4.90999 6.33998C5.48845 6.90647 6.27052 7.21641 7.08 7.19998C7.70037 7.2072 8.30885 7.02968 8.82799 6.68998C8.93909 6.61298 9.0038 6.48509 9 6.34997V1.8C9.00127 1.65581 8.92484 1.5221 8.79996 1.45001Z" fill="#EB5757"/>
</svg>
