<svg width="17" height="17" viewBox="0 0 17 17" fill="none" xmlns="http://www.w3.org/2000/svg">
<path d="M16.744 7.73184L9.34399 0.63858C9.15076 0.453156 8.84534 0.453156 8.6521 0.63858L1.24475 7.73917C1.08801 7.8959 0.998047 8.11185 0.998047 8.33255C0.998047 8.7919 1.37207 9.16592 1.83142 9.16592H2.99805V15.4992C2.99805 16.0512 3.44604 16.4992 3.99805 16.4992H6.83142C7.10742 16.4992 7.33142 16.2752 7.33142 15.9992V11.6659C7.33142 11.5745 7.40601 11.4992 7.49805 11.4992H10.498C10.5894 11.4992 10.6647 11.5745 10.6647 11.6659V15.9992C10.6647 16.2752 10.8887 16.4992 11.1647 16.4992H13.998C14.55 16.4992 14.998 16.0512 14.998 15.4992V9.16592H16.1647C16.624 9.16592 16.998 8.7919 16.998 8.33255C16.998 8.11185 16.9081 7.8959 16.744 7.73184Z" fill="#BBBBBB"/>
</svg>
