<svg width="7" height="12" viewBox="0 0 7 12" fill="none" xmlns="http://www.w3.org/2000/svg">
<path d="M0.646016 0.146894C0.739647 0.0530257 0.866727 0.000188029 0.999309 5.00866e-07C1.13189 -0.000187027 1.25912 0.0522911 1.35302 0.145894L6.83702 5.61089C6.88827 5.66199 6.92893 5.72269 6.95667 5.78953C6.98442 5.85637 6.9987 5.92803 6.9987 6.00039C6.9987 6.07276 6.98442 6.14442 6.95667 6.21126C6.92893 6.2781 6.88827 6.3388 6.83702 6.3899L1.35302 11.8549C1.25859 11.9458 1.13221 11.9961 1.00111 11.9948C0.870009 11.9934 0.744672 11.9407 0.652095 11.8478C0.559519 11.755 0.507112 11.6295 0.506162 11.4984C0.505212 11.3673 0.555795 11.2411 0.647016 11.1469L5.81202 5.99989L0.647016 0.853894C0.553148 0.760263 0.50031 0.633183 0.500123 0.500601C0.499935 0.368019 0.552413 0.24079 0.646016 0.146894Z" fill="black"/>
</svg>
