<svg width="35" height="34" viewBox="0 0 35 34" fill="none" xmlns="http://www.w3.org/2000/svg">
<g clip-path="url(#clip0)">
<path d="M34.998 23.0098C34.998 18.0539 31.6588 13.724 26.9499 12.4193C26.6539 5.52106 20.9503 0 13.9805 0C6.82182 0 0.998047 5.82378 0.998047 12.9824C0.998047 15.3155 1.61905 17.587 2.79828 19.5813L1.04578 25.9169L7.38161 24.1646C9.21478 25.2486 11.2827 25.8593 13.4171 25.9514C14.7216 30.6605 19.0517 34 24.0078 34C25.986 34 27.9097 33.4732 29.5999 32.4721L34.9501 33.952L33.4702 28.6019C34.4712 26.9117 34.998 24.9879 34.998 23.0098ZM7.696 22.0106L3.90306 23.0598L4.95233 19.2669L4.71317 18.8928C3.58607 17.1294 2.99023 15.0856 2.99023 12.9824C2.99023 6.92233 7.92038 1.99219 13.9805 1.99219C20.0406 1.99219 24.9707 6.92233 24.9707 12.9824C24.9707 19.0425 20.0406 23.9727 13.9805 23.9727C11.8773 23.9727 9.83371 23.3768 8.07005 22.2497L7.696 22.0106ZM32.093 31.095L29.2785 30.3163L28.9027 30.5609C27.4456 31.5074 25.7528 32.0078 24.0078 32.0078C20.1127 32.0078 16.6899 29.4893 15.4772 25.8779C21.4418 25.1903 26.1883 20.4438 26.8763 14.4789C30.4874 15.6918 33.0059 19.1146 33.0059 23.0098C33.0059 24.7547 32.5055 26.4476 31.5589 27.9046L31.3143 28.2805L32.093 31.095Z" fill="#00904A"/>
<path d="M8.5696 11.7454C8.9961 11.7454 9.34232 11.3992 9.34232 10.9727C9.34232 10.5462 8.9961 10.2 8.5696 10.2C8.14309 10.2 7.79688 10.5462 7.79688 10.9727C7.79688 11.3992 8.14309 11.7454 8.5696 11.7454Z" fill="#00904A"/>
<path d="M20.9122 10.2H10.9091C10.4706 10.2 10.1152 10.5459 10.1152 10.9727C10.1152 11.3995 10.4706 11.7454 10.9091 11.7454H20.9122C21.3507 11.7454 21.7061 11.3995 21.7061 10.9727C21.7061 10.5459 21.3507 10.2 20.9122 10.2Z" fill="#00904A"/>
<path d="M20.9581 15.6091H8.54467C8.13163 15.6091 7.79688 15.955 7.79688 16.3819C7.79688 16.8087 8.13163 17.1546 8.54467 17.1546H20.9581C21.3711 17.1546 21.7059 16.8087 21.7059 16.3819C21.7059 15.955 21.3711 15.6091 20.9581 15.6091Z" fill="#00904A"/>
</g>
<defs>
<clipPath id="clip0">
<rect width="34" height="34" fill="white" transform="translate(0.998047)"/>
</clipPath>
</defs>
</svg>
