<svg width="20" height="24" viewBox="0 0 20 24" fill="none" xmlns="http://www.w3.org/2000/svg">
<path fill-rule="evenodd" clip-rule="evenodd" d="M9.25 0.749998V3.03988C5.74145 3.41522 2.99999 6.39336 2.99999 9.99992V12.7881C2.99999 14.7671 2.13299 16.6349 0.611937 17.9199C0.223022 18.253 0 18.7379 0 19.25C0 20.215 0.784971 20.9999 1.74993 20.9999H6.32531C6.32531 21 6.32531 21 6.32532 21H13.6747C13.6747 21 13.6747 21 13.6747 20.9999H18.2499C19.215 20.9999 20 20.215 20 19.25C20 18.7379 19.777 18.253 19.378 17.913C17.867 16.6349 17 14.7671 17 12.7881V9.99992C17 6.39341 14.2586 3.41531 10.75 3.0399V0.749998C10.75 0.335998 10.414 0 10 0C9.586 0 9.25 0.335998 9.25 0.749998ZM13.4369 21.75H6.56306C7.14275 23.0733 8.46505 24 9.99999 24C11.5349 24 12.8572 23.0733 13.4369 21.75Z" fill="#058F49"/>
</svg>
