<svg width="20" height="24" viewBox="0 0 20 24" fill="none" xmlns="http://www.w3.org/2000/svg">
<path d="M9.99997 23.9999C7.93198 23.9999 6.24998 22.3179 6.24998 20.2499C6.24998 19.8359 6.58598 19.4999 6.99998 19.4999C7.41398 19.4999 7.74997 19.8359 7.74997 20.2499C7.74997 21.491 8.75907 22.4999 9.99997 22.4999C11.2411 22.4999 12.25 21.491 12.25 20.2499C12.25 19.8359 12.586 19.4999 13 19.4999C13.414 19.4999 13.75 19.8359 13.75 20.2499C13.75 22.3179 12.068 23.9999 9.99997 23.9999Z" fill="#058F49"/>
<path d="M18.2499 20.9999H1.74993C0.784971 20.9999 0 20.215 0 19.25C0 18.7379 0.223022 18.253 0.611937 17.9199C2.13299 16.6349 2.99999 14.7671 2.99999 12.7881V9.99992C2.99999 6.14007 6.14006 3 9.99991 3C13.8599 3 17 6.14007 17 9.99992V12.7881C17 14.7671 17.867 16.6349 19.378 17.913C19.777 18.253 20 18.7379 20 19.25C20 20.215 19.215 20.9999 18.2499 20.9999ZM9.99991 4.5C6.96696 4.5 4.49999 6.96697 4.49999 9.99992V12.7881C4.49999 15.2089 3.43908 17.495 1.59008 19.0579C1.55493 19.088 1.5 19.15 1.5 19.25C1.5 19.3859 1.61407 19.5 1.74993 19.5H18.2499C18.3859 19.5 18.5 19.3859 18.5 19.25C18.5 19.15 18.4449 19.088 18.4119 19.0599C16.5609 17.495 15.5 15.2089 15.5 12.7881V9.99992C15.5 6.96697 13.033 4.5 9.99991 4.5Z" fill="#058F49"/>
<path d="M9.99997 4.49999C9.58597 4.49999 9.24997 4.16399 9.24997 3.74999V0.749998C9.24997 0.335998 9.58597 0 9.99997 0C10.414 0 10.75 0.335998 10.75 0.749998V3.74999C10.75 4.16399 10.414 4.49999 9.99997 4.49999Z" fill="#058F49"/>
</svg>
