<svg width="30" height="30" viewBox="0 0 30 30" fill="none" xmlns="http://www.w3.org/2000/svg">
<path d="M14.7258 11.5252C14.3602 11.1595 13.7658 11.1577 13.3983 11.5233L10.3121 14.6114L9.10082 13.3983C8.7352 13.0327 8.14082 13.0327 7.7752 13.3983C7.40957 13.7639 7.40957 14.3583 7.7752 14.7239L9.6502 16.5989C9.83208 16.7827 10.0721 16.8745 10.3121 16.8745C10.5521 16.8745 10.7921 16.7827 10.9758 16.6008L14.7258 12.8508C15.0915 12.4852 15.0915 11.8908 14.7258 11.5252Z" fill="#069255"/>
<path d="M14.7258 19.0252C14.3602 18.6595 13.7658 18.6577 13.3983 19.0233L10.3121 22.1114L9.10082 20.9002C8.7352 20.5345 8.14082 20.5345 7.7752 20.9002C7.40957 21.2658 7.40957 21.8602 7.7752 22.2258L9.6502 24.1008C9.83208 24.2827 10.0721 24.3745 10.3121 24.3745C10.5521 24.3745 10.7921 24.2827 10.9758 24.1008L14.7258 20.3508C15.0915 19.9852 15.0915 19.3908 14.7258 19.0252Z" fill="#069255"/>
<path d="M21.5625 13.125H17.8125C17.295 13.125 16.875 13.545 16.875 14.0625C16.875 14.58 17.295 15 17.8125 15H21.5625C22.08 15 22.5 14.58 22.5 14.0625C22.5 13.545 22.08 13.125 21.5625 13.125Z" fill="#069255"/>
<path d="M21.5625 20.625H17.8125C17.295 20.625 16.875 21.045 16.875 21.5625C16.875 22.08 17.295 22.5 17.8125 22.5H21.5625C22.08 22.5 22.5 22.08 22.5 21.5625C22.5 21.045 22.08 20.625 21.5625 20.625Z" fill="#069255"/>
<path d="M24.375 3.75H20.625V2.8125C20.625 2.295 20.205 1.875 19.6875 1.875H17.6531C17.265 0.78375 16.2225 0 15 0C13.7775 0 12.735 0.78375 12.3469 1.875H10.3125C9.795 1.875 9.375 2.295 9.375 2.8125V3.75H5.625C4.59188 3.75 3.75 4.59188 3.75 5.625V28.125C3.75 29.1581 4.59188 30 5.625 30H24.375C25.4081 30 26.25 29.1581 26.25 28.125V5.625C26.25 4.59188 25.4081 3.75 24.375 3.75ZM11.25 3.75H13.125C13.6425 3.75 14.0625 3.33 14.0625 2.8125C14.0625 2.295 14.4825 1.875 15 1.875C15.5175 1.875 15.9375 2.295 15.9375 2.8125C15.9375 3.33 16.3575 3.75 16.875 3.75H18.75V5.625H11.25V3.75ZM24.375 28.125H5.625V5.625H9.375V6.5625C9.375 7.08 9.795 7.5 10.3125 7.5H19.6875C20.205 7.5 20.625 7.08 20.625 6.5625V5.625H24.375V28.125Z" fill="#069255"/>
</svg>
