<svg width="17" height="17" viewBox="0 0 17 17" fill="none" xmlns="http://www.w3.org/2000/svg">
<path d="M16.6394 13.1552L14.1684 10.6784C13.6762 10.1871 12.8612 10.202 12.3519 10.7127L11.107 11.9601C11.0284 11.9167 10.947 11.8713 10.8614 11.8231C10.0752 11.3866 8.99929 10.7882 7.86708 9.65259C6.73151 8.51459 6.13394 7.43454 5.69703 6.64613C5.65092 6.5626 5.60675 6.48207 5.56313 6.40559L6.39862 5.56945L6.80938 5.15725C7.31948 4.64586 7.33354 3.82921 6.84252 3.33648L4.37157 0.859373C3.88056 0.367334 3.06515 0.382261 2.55505 0.89365L1.85866 1.59563L1.87769 1.61457C1.64417 1.9132 1.44904 2.25763 1.30383 2.62905C1.16998 2.9826 1.08664 3.31998 1.04853 3.65805C0.722261 6.36906 1.95831 8.84671 5.31279 12.2088C9.9497 16.8559 13.6864 16.5049 13.8476 16.4877C14.1987 16.4457 14.5352 16.3616 14.8772 16.2285C15.2445 16.0847 15.588 15.8894 15.8857 15.6558L15.9009 15.6694L16.6064 14.977C17.1155 14.4657 17.1301 13.6487 16.6394 13.1552Z" fill="#00904A"/>
</svg>
