<svg width="16" height="16" viewBox="0 0 16 16" fill="none" xmlns="http://www.w3.org/2000/svg">
<path d="M15 7H9V1C9 0.734783 8.89464 0.48043 8.70712 0.292894C8.5196 0.105357 8.2652 0 8 0C7.73478 0 7.48043 0.105357 7.2929 0.292894C7.10536 0.48043 7 0.734783 7 1V7H1C0.734783 7 0.48043 7.10536 0.292894 7.2929C0.105357 7.48043 0 7.73478 0 8C0 8.2652 0.105357 8.5196 0.292894 8.70712C0.48043 8.89464 0.734783 9 1 9H7V15C7 15.2652 7.10536 15.5196 7.2929 15.7071C7.48043 15.8946 7.73478 16 8 16C8.2652 16 8.5196 15.8946 8.70712 15.7071C8.89464 15.5196 9 15.2652 9 15V9H15C15.2652 9 15.5196 8.89464 15.7071 8.70712C15.8946 8.5196 16 8.2652 16 8C16 7.73478 15.8946 7.48043 15.7071 7.2929C15.5196 7.10536 15.2652 7 15 7Z" fill="#069255"/>
</svg>
