<svg width="10" height="10" viewBox="0 0 10 10" fill="none" xmlns="http://www.w3.org/2000/svg">
<path fill-rule="evenodd" clip-rule="evenodd" d="M10 4.99921C10 5.16497 9.93415 5.32394 9.81694 5.44115C9.69973 5.55836 9.54076 5.62421 9.375 5.62421L2.13375 5.62421L4.8175 8.30671C4.93486 8.42407 5.00079 8.58324 5.00079 8.74921C5.00079 8.91518 4.93486 9.07435 4.8175 9.19171C4.70014 9.30907 4.54097 9.375 4.375 9.375C4.20903 9.375 4.04986 9.30907 3.9325 9.19171L0.182499 5.44171C0.124296 5.38365 0.0781168 5.31468 0.0466093 5.23875C0.0151008 5.16282 -0.00111733 5.08142 -0.00111732 4.99921C-0.00111732 4.917 0.0151009 4.8356 0.0466093 4.75967C0.0781168 4.68374 0.124296 4.61477 0.182499 4.55671L3.9325 0.806711C4.04986 0.689352 4.20903 0.623421 4.375 0.623421C4.54097 0.623421 4.70014 0.689353 4.8175 0.806711C4.93486 0.924069 5.00079 1.08324 5.00079 1.24921C5.00079 1.41518 4.93486 1.57435 4.8175 1.69171L2.13375 4.37421L9.375 4.37421C9.54076 4.37421 9.69973 4.44006 9.81694 4.55727C9.93415 4.67448 10 4.83345 10 4.99921Z" fill="black"/>
</svg>
