<svg width="12" height="12" viewBox="0 0 12 12" fill="none" xmlns="http://www.w3.org/2000/svg">
<path d="M10.2429 0.343146L6.00023 4.58579L1.75759 0.343146C1.57005 0.155609 1.3157 0.0502549 1.05049 0.0502436C0.785289 0.0502317 0.530902 0.155621 0.343378 0.343146C0.155842 0.530682 0.0504864 0.785034 0.0504868 1.05025C0.050487 1.31547 0.155841 1.56982 0.343378 1.75736L4.58602 6L0.343378 10.2426C0.155841 10.4302 0.050487 10.6845 0.0504868 10.9497C0.0504864 11.215 0.155842 11.4693 0.343378 11.6569C0.530902 11.8444 0.785289 11.9498 1.05049 11.9498C1.3157 11.9497 1.57005 11.8444 1.75759 11.6569L6.00023 7.41421L10.2429 11.6569C10.4304 11.8444 10.6848 11.9498 10.95 11.9498C11.2152 11.9497 11.4695 11.8444 11.6571 11.6569C11.8446 11.4693 11.95 11.2149 11.95 10.9497C11.95 10.6846 11.8446 10.4302 11.6571 10.2426L7.41445 6L11.6571 1.75736C11.8446 1.56983 11.95 1.31545 11.95 1.05025C11.95 0.785059 11.8446 0.53067 11.6571 0.343146C11.4695 0.15561 11.2152 0.0502569 10.95 0.0502455C10.6848 0.0502344 10.4304 0.155621 10.2429 0.343146Z" fill="#DA4838"/>
</svg>
