<svg width="7" height="12" viewBox="0 0 7 12" fill="none" xmlns="http://www.w3.org/2000/svg">
<path d="M0.645894 0.147016C0.739525 0.0531478 0.866605 0.000310099 0.999187 0.000122571C1.13177 -6.49566e-05 1.259 0.0524131 1.35289 0.146016L6.83689 5.61102C6.88814 5.66211 6.9288 5.72282 6.95655 5.78965C6.98429 5.85649 6.99858 5.92815 6.99858 6.00052C6.99858 6.07288 6.98429 6.14454 6.95655 6.21138C6.9288 6.27822 6.88814 6.33892 6.83689 6.39002L1.35289 11.855C1.25847 11.946 1.13209 11.9962 1.00099 11.9949C0.869887 11.9936 0.74455 11.9408 0.651973 11.848C0.559397 11.7551 0.50699 11.6296 0.50604 11.4985C0.50509 11.3674 0.555673 11.2412 0.646894 11.147L5.81189 6.00002L0.646894 0.854016C0.553026 0.760385 0.500188 0.633306 0.500001 0.500723C0.499813 0.368141 0.552291 0.240912 0.645894 0.147016Z" fill="black"/>
</svg>
