<svg width="32" height="32" viewBox="0 0 32 32" fill="none" xmlns="http://www.w3.org/2000/svg">
<path d="M10.3745 13.6H21.6245C22.0247 13.6 22.3495 13.2752 22.3495 12.875V1.625C22.3495 1.22477 22.0247 0.9 21.6245 0.9H10.3745C9.97428 0.9 9.64951 1.22477 9.64951 1.625V12.875C9.64951 13.2752 9.97428 13.6 10.3745 13.6ZM20.8995 2.35V12.15H11.0995V2.35H20.8995Z" fill="#069255" stroke="#069255" stroke-width="0.2"/>
<path d="M4.125 24.85H16C16.4002 24.85 16.725 24.5252 16.725 24.125V12.875C16.725 12.4748 16.4002 12.15 16 12.15H4.125C3.72477 12.15 3.4 12.4748 3.4 12.875V24.125C3.4 24.5252 3.72477 24.85 4.125 24.85ZM15.275 13.6V23.4H4.85V13.6H15.275Z" fill="#069255" stroke="#069255" stroke-width="0.2"/>
<path d="M16 24.85H27.875C28.2752 24.85 28.6 24.5252 28.6 24.125V12.875C28.6 12.4748 28.2752 12.15 27.875 12.15H16C15.5998 12.15 15.275 12.4748 15.275 12.875V24.125C15.275 24.5252 15.5998 24.85 16 24.85ZM27.15 13.6V23.4H16.725V13.6H27.15Z" fill="#069255" stroke="#069255" stroke-width="0.2"/>
<path d="M25.375 31.1H30.375C30.7752 31.1 31.1 30.7752 31.1 30.375V24.125C31.1 23.7248 30.7752 23.4 30.375 23.4H1.625C1.22477 23.4 0.9 23.7248 0.9 24.125V30.375C0.9 30.7752 1.22477 31.1 1.625 31.1H6.625C7.02523 31.1 7.35 30.7752 7.35 30.375V28.6H12.15V30.375C12.15 30.7752 12.4748 31.1 12.875 31.1H19.125C19.5252 31.1 19.85 30.7752 19.85 30.375V28.6H24.65V30.375C24.65 30.7752 24.9748 31.1 25.375 31.1ZM29.65 24.85V29.65H26.1V27.875C26.1 27.4748 25.7752 27.15 25.375 27.15H19.125C18.7248 27.15 18.4 27.4748 18.4 27.875V29.65H13.6V27.875C13.6 27.4748 13.2752 27.15 12.875 27.15H6.625C6.22477 27.15 5.9 27.4748 5.9 27.875V29.65H2.35V24.85H29.65Z" fill="#069255" stroke="#069255" stroke-width="0.2"/>
</svg>
