<svg width="17" height="16" viewBox="0 0 17 16" fill="none" xmlns="http://www.w3.org/2000/svg">
<g clip-path="url(#clip0_7009_192341)">
<path d="M16.8096 4.99006L8.66392 0.740138C8.56086 0.686881 8.43911 0.686881 8.33605 0.740138L0.190371 4.99006C0.0458074 5.06547 -0.0285663 5.23008 0.010181 5.38849C0.0492604 5.5469 0.191068 5.65827 0.354325 5.65827H0.708497V14.5123C0.708497 14.708 0.866906 14.8665 1.06267 14.8665H3.18763C3.38339 14.8665 3.5418 14.708 3.5418 14.5123V6.36658H13.4583V14.5123C13.4583 14.708 13.6167 14.8664 13.8125 14.8664H15.9374C16.1332 14.8664 16.2916 14.708 16.2916 14.5123V5.65827H16.6458C16.809 5.65827 16.9508 5.5469 16.9899 5.38849C17.0285 5.23008 16.9542 5.06547 16.8096 4.99006ZM15.5832 5.30409V14.1581H14.1665V6.01244C14.1665 5.81667 14.0081 5.65827 13.8124 5.65827H3.18756C2.9918 5.65827 2.83339 5.81667 2.83339 6.01244V14.1581H1.41677V5.30409C1.41677 5.25429 1.40638 5.20724 1.38805 5.16438L8.49997 1.45366L15.6119 5.16438C15.5936 5.20727 15.5832 5.25429 15.5832 5.30409Z" fill="#303334"/>
<path d="M12.3957 9.90723H8.14579C7.95003 9.90723 7.79162 10.0656 7.79162 10.2614V10.6156H4.60417C4.40841 10.6156 4.25 10.774 4.25 10.9697V14.5114C4.25 14.7071 4.40841 14.8655 4.60417 14.8655H12.3957C12.5915 14.8655 12.7499 14.7071 12.7499 14.5114V10.2614C12.7499 10.0656 12.5915 9.90723 12.3957 9.90723ZM7.79162 14.1572H4.95834V11.3239H6.02082V12.0322C6.02082 12.228 6.17923 12.3864 6.375 12.3864C6.57076 12.3864 6.72917 12.228 6.72917 12.0322V11.3239H7.79165V14.1572H7.79162ZM12.0415 14.1572H8.49993V10.9697V10.6155H9.91658V11.678C9.91658 11.8738 10.075 12.0322 10.2708 12.0322C10.4665 12.0322 10.6249 11.8738 10.6249 11.678V10.6155H12.0416V14.1572H12.0415Z" fill="#303334"/>
</g>
<defs>
<clipPath id="clip0_7009_192341">
<rect width="17" height="16" fill="white"/>
</clipPath>
</defs>
</svg>
